<?xml version="1.0" ?><!DOCTYPE svg  PUBLIC '-//W3C//DTD SVG 1.1//EN'  'http://www.w3.org/Graphics/SVG/1.1/DTD/svg11.dtd'><svg enable-background="new 0 0 128 128" id="Слой_1" version="1.1" viewBox="0 0 128 128" xml:space="preserve" xmlns="http://www.w3.org/2000/svg" xmlns:xlink="http://www.w3.org/1999/xlink"><path d="M104,62H72v-7.7L88.6,57c0.1,0,0.3,0,0.4,0c0.5,0,1-0.2,1.4-0.5l12-8.5c1.1-0.8,1.4-2.3,0.7-3.4l-8-12.5  c-0.4-0.6-1-1-1.7-1.1L72,27.6V4c0-0.8-0.4-1.6-1.1-2.1c-0.7-0.5-1.6-0.5-2.4-0.2l-11,5C56.6,7.1,56,8,56,9v16l-18.6-3  c-1.3-0.2-2.6,0.7-2.9,2l-4,21c-0.1,0.7,0,1.4,0.4,1.9s1,0.9,1.6,1L56,51.7V62H24c-0.7,0-1.3,0.3-1.8,0.8l-10,10.5  c-0.9,1-0.9,2.5,0,3.4l10,10.5c0.5,0.5,1.1,0.8,1.8,0.8h32v36c0,1.4,1.1,2.5,2.5,2.5h11c1.4,0,2.5-1.1,2.5-2.5V88h32  c1.4,0,2.5-1.1,2.5-2.5v-21C106.5,63.1,105.4,62,104,62z M61,10.6l6-2.7v18.9l-6-1V10.6z M39,27.4l52.5,8.4l6.1,9.5l-9.2,6.5  l-52.4-8.4L39,27.4z M61,52.5l6,1V62h-6V52.5z M67,121.5h-6V88h6V121.5z M101.5,83H25.1l-7.6-8l7.6-8h76.4V83z" fill="#4A374F"/></svg>