<?xml version="1.0" ?><svg height="24px" version="1.1" viewBox="0 0 24 24" width="24px" xmlns="http://www.w3.org/2000/svg" xmlns:sketch="http://www.bohemiancoding.com/sketch/ns" xmlns:xlink="http://www.w3.org/1999/xlink"><title/><desc/><defs/><g fill="none" fill-rule="evenodd" id="miu" stroke="none" stroke-width="1"><g id="Artboard-1" transform="translate(-287.000000, -155.000000)"><g id="slice" transform="translate(215.000000, 119.000000)"/><path d="M303.083426,166.99764 L300.047892,170.033174 L300.754999,170.740281 L304.99764,166.49764 L300.754999,162.254999 L300.047892,162.962106 L303.084989,165.999202 L294.00236,165.999202 L294.00236,166.99764 L303.083426,166.99764 Z M288,166.5 C288,160.148725 293.148725,155 299.5,155 C305.851275,155 311,160.148725 311,166.5 C311,172.851275 305.851275,178 299.5,178 C293.148725,178 288,172.851275 288,166.5 Z M310,166.5 C310,160.70101 305.29899,156 299.5,156 C293.70101,156 289,160.70101 289,166.5 C289,172.29899 293.70101,177 299.5,177 C305.29899,177 310,172.29899 310,166.5 Z" fill="#000000" id="circle-arrow_forward-next-outline-stroke"/></g></g></svg>